<?xml version="1.0" encoding="UTF-8" standalone="no"?>
<svg
   version="1.0"
   width="295.42691pt"
   height="264.61407pt"
   viewBox="0 0 295.42691 264.61407"
   preserveAspectRatio="xMidYMid"
   id="svg9"
   xmlns="http://www.w3.org/2000/svg"
   xmlns:svg="http://www.w3.org/2000/svg">
  <defs
     id="defs9" />
  <g
     transform="matrix(0.1,0,0,-0.1,-158.1912,438.33561)"
     fill="#000000"
     stroke="none"
     id="g9"
     style="fill:#9077e5;fill-opacity:1">
    <path
       d="m 3063,4382 c -6,-4 -15,-45 -20,-92 l -8,-85 -152,-25 c -83,-14 -155,-29 -159,-33 -17,-17 25,-27 120,-27 h 98 l -58,-31 c -100,-52 -167,-130 -202,-234 -13,-36 -27,-61 -39,-65 -10,-4 -204,-29 -430,-56 -280,-33 -413,-53 -413,-61 0,-14 55,-23 145,-21 139,2 132,5 137,-52 12,-126 139,-195 255,-139 54,26 93,88 93,147 0,41 3,45 35,45 8,0 57,-1 109,-2 l 94,-1 11,-44 c 15,-60 85,-161 140,-202 133,-97 313,-108 448,-27 32,19 69,44 82,56 37,35 82,104 100,158 10,27 20,51 22,53 3,3 56,6 119,7 111,1 115,1 112,-19 -5,-35 17,-99 45,-133 67,-79 199,-79 266,0 28,34 50,98 45,133 -3,20 1,21 122,23 146,2 140,2 140,18 0,9 -114,25 -408,60 -224,27 -415,51 -424,53 -10,3 -22,23 -29,47 -30,111 -106,204 -211,256 l -61,31 h 105 c 81,0 108,3 118,15 16,19 18,18 -160,46 -80,12 -148,27 -152,33 -4,6 -8,36 -9,66 -2,75 -11,111 -26,102 z m 155,-367 c 57,-31 126,-99 119,-118 -4,-14 -256,-197 -270,-197 -15,0 -277,190 -277,202 0,22 103,108 152,127 80,32 204,25 276,-14 z"
       id="path6"
       style="fill:#9077e5;fill-opacity:1" />
    <path
       d="m 2564,2892 c -155,-180 -439,-509 -630,-731 -192,-222 -350,-409 -352,-415 -2,-8 30,-10 105,-8 l 108,3 92,127 c 51,70 132,181 181,247 95,129 218,297 462,630 84,116 195,267 247,336 51,69 93,129 93,133 0,28 -61,-36 -306,-322 z"
       id="path7"
       style="fill:#9077e5;fill-opacity:1" />
    <path
       d="m 2777,2993 c -265,-448 -485,-819 -515,-868 -122,-201 -222,-377 -218,-383 2,-4 197,-6 434,-4 l 429,2 7,93 c 4,50 10,113 13,140 l 6,47 h 127 127 l 6,-47 c 3,-27 9,-90 13,-140 l 7,-93 h 433 c 239,0 434,2 434,6 0,3 -57,100 -127,217 -176,296 -318,535 -473,797 -73,124 -164,278 -203,343 l -70,117 h -63 -64 l 6,-42 c 10,-89 21,-233 17,-240 -2,-5 -22,-8 -43,-8 -21,0 -41,3 -43,8 -5,6 5,132 18,240 l 5,42 h -64 -64 z m 348,-275 c 2,-7 11,-96 19,-198 9,-102 18,-209 22,-237 l 5,-53 h -110 c -61,0 -111,3 -111,8 0,25 42,469 45,480 3,8 25,12 65,12 40,0 62,-4 65,-12 z"
       id="path8"
       style="fill:#9077e5;fill-opacity:1" />
    <path
       d="m 3250,3214 c 0,-5 1046,-1439 1070,-1467 8,-9 208,-12 216,-4 5,5 -91,119 -594,702 -91,105 -174,201 -186,215 -12,14 -104,121 -206,239 -102,117 -205,238 -229,267 -38,46 -71,69 -71,48 z"
       id="path9"
       style="fill:#9077e5;fill-opacity:1" />
  </g>
</svg>
